<svg width="243" height="47" viewBox="0 0 243 47" fill="none" xmlns="http://www.w3.org/2000/svg">
<rect y="0.5" width="50" height="46" rx="4" fill="url(#paint0_linear_26_13543)"/>
<path d="M9.728 33.5V15.62H12.272L22.112 28.868L20.792 29.132V15.62H24.056V33.5H21.488L11.792 20.156L12.992 19.892V33.5H9.728ZM33.9011 33.788C32.7651 33.788 31.7091 33.58 30.7331 33.164C29.7731 32.748 28.9411 32.172 28.2371 31.436C27.5491 30.684 27.0451 29.812 26.7251 28.82L29.4371 27.644C29.8691 28.668 30.4931 29.476 31.3091 30.068C32.1251 30.644 33.0451 30.932 34.0691 30.932C34.6451 30.932 35.1411 30.844 35.5571 30.668C35.9891 30.476 36.3171 30.22 36.5411 29.9C36.7811 29.58 36.9011 29.196 36.9011 28.748C36.9011 28.22 36.7411 27.788 36.4211 27.452C36.1171 27.1 35.6531 26.828 35.0291 26.636L31.5971 25.532C30.2051 25.1 29.1571 24.452 28.4531 23.588C27.7491 22.724 27.3971 21.708 27.3971 20.54C27.3971 19.516 27.6451 18.612 28.1411 17.828C28.6531 17.044 29.3571 16.436 30.2531 16.004C31.1651 15.556 32.2051 15.332 33.3731 15.332C34.4451 15.332 35.4291 15.524 36.3251 15.908C37.2211 16.276 37.9891 16.796 38.6291 17.468C39.2851 18.124 39.7731 18.9 40.0931 19.796L37.4051 20.996C37.0531 20.1 36.5251 19.412 35.8211 18.932C35.1171 18.436 34.3011 18.188 33.3731 18.188C32.8291 18.188 32.3491 18.284 31.9331 18.476C31.5171 18.652 31.1891 18.908 30.9491 19.244C30.7251 19.564 30.6131 19.948 30.6131 20.396C30.6131 20.892 30.7731 21.332 31.0931 21.716C31.4131 22.084 31.9011 22.372 32.5571 22.58L35.8451 23.612C37.2691 24.076 38.3331 24.716 39.0371 25.532C39.7571 26.348 40.1171 27.356 40.1171 28.556C40.1171 29.58 39.8531 30.484 39.3251 31.268C38.7971 32.052 38.0691 32.668 37.1411 33.116C36.2131 33.564 35.1331 33.788 33.9011 33.788Z" fill="white"/>
<path d="M59.728 33.5V15.62H62.272L72.112 28.868L70.792 29.132V15.62H74.056V33.5H71.488L61.792 20.156L62.992 19.892V33.5H59.728ZM83.6371 33.788C82.3571 33.788 81.1891 33.492 80.1331 32.9C79.0931 32.308 78.2611 31.5 77.6371 30.476C77.0291 29.452 76.7251 28.284 76.7251 26.972C76.7251 25.66 77.0291 24.492 77.6371 23.468C78.2611 22.444 79.0931 21.636 80.1331 21.044C81.1731 20.452 82.3411 20.156 83.6371 20.156C84.9171 20.156 86.0771 20.452 87.1171 21.044C88.1571 21.636 88.9811 22.444 89.5891 23.468C90.2131 24.476 90.5251 25.644 90.5251 26.972C90.5251 28.284 90.2131 29.452 89.5891 30.476C88.9651 31.5 88.1331 32.308 87.0931 32.9C86.0531 33.492 84.9011 33.788 83.6371 33.788ZM83.6371 30.908C84.3411 30.908 84.9571 30.74 85.4851 30.404C86.0291 30.068 86.4531 29.604 86.7571 29.012C87.0771 28.404 87.2371 27.724 87.2371 26.972C87.2371 26.204 87.0771 25.532 86.7571 24.956C86.4531 24.364 86.0291 23.9 85.4851 23.564C84.9571 23.212 84.3411 23.036 83.6371 23.036C82.9171 23.036 82.2851 23.212 81.7411 23.564C81.1971 23.9 80.7651 24.364 80.4451 24.956C80.1411 25.532 79.9891 26.204 79.9891 26.972C79.9891 27.724 80.1411 28.404 80.4451 29.012C80.7651 29.604 81.1971 30.068 81.7411 30.404C82.2851 30.74 82.9171 30.908 83.6371 30.908ZM98.6269 33.644C97.1549 33.644 96.0109 33.244 95.1949 32.444C94.3949 31.628 93.9949 30.484 93.9949 29.012V23.252H91.7389V20.444H91.9789C92.6189 20.444 93.1149 20.276 93.4669 19.94C93.8189 19.604 93.9949 19.116 93.9949 18.476V17.468H97.1389V20.444H100.139V23.252H97.1389V28.844C97.1389 29.276 97.2109 29.644 97.3549 29.948C97.5149 30.252 97.7549 30.484 98.0749 30.644C98.4109 30.804 98.8349 30.884 99.3469 30.884C99.4589 30.884 99.5869 30.876 99.7309 30.86C99.8909 30.844 100.043 30.828 100.187 30.812V33.5C99.9629 33.532 99.7069 33.564 99.4189 33.596C99.1309 33.628 98.8669 33.644 98.6269 33.644ZM106.502 33.788C105.59 33.788 104.798 33.636 104.126 33.332C103.454 33.028 102.934 32.596 102.566 32.036C102.198 31.46 102.014 30.796 102.014 30.044C102.014 29.324 102.174 28.684 102.494 28.124C102.814 27.548 103.31 27.068 103.982 26.684C104.654 26.3 105.502 26.028 106.526 25.868L110.798 25.172V27.572L107.126 28.196C106.502 28.308 106.038 28.508 105.734 28.796C105.43 29.084 105.278 29.46 105.278 29.924C105.278 30.372 105.446 30.732 105.782 31.004C106.134 31.26 106.566 31.388 107.078 31.388C107.734 31.388 108.31 31.252 108.806 30.98C109.318 30.692 109.71 30.3 109.982 29.804C110.27 29.308 110.414 28.764 110.414 28.172V24.812C110.414 24.252 110.19 23.788 109.742 23.42C109.31 23.036 108.734 22.844 108.014 22.844C107.342 22.844 106.742 23.028 106.214 23.396C105.702 23.748 105.326 24.22 105.086 24.812L102.518 23.564C102.774 22.876 103.174 22.284 103.718 21.788C104.278 21.276 104.934 20.876 105.686 20.588C106.438 20.3 107.254 20.156 108.134 20.156C109.206 20.156 110.15 20.356 110.966 20.756C111.782 21.14 112.414 21.684 112.862 22.388C113.326 23.076 113.558 23.884 113.558 24.812V33.5H110.582V31.268L111.254 31.22C110.918 31.78 110.518 32.252 110.054 32.636C109.59 33.004 109.062 33.292 108.47 33.5C107.878 33.692 107.222 33.788 106.502 33.788ZM116.464 33.5V20.444H119.416V23.348L119.176 22.916C119.48 21.94 119.952 21.26 120.592 20.876C121.248 20.492 122.032 20.3 122.944 20.3H123.712V23.084H122.584C121.688 23.084 120.968 23.364 120.424 23.924C119.88 24.468 119.608 25.236 119.608 26.228V33.5H116.464ZM127.025 38.804C126.673 38.804 126.329 38.772 125.993 38.708C125.657 38.66 125.353 38.572 125.081 38.444V35.804C125.289 35.852 125.537 35.9 125.825 35.948C126.129 35.996 126.409 36.02 126.665 36.02C127.385 36.02 127.905 35.852 128.225 35.516C128.561 35.18 128.857 34.74 129.113 34.196L129.977 32.18L129.929 34.82L124.241 20.444H127.625L131.609 31.052H130.409L134.369 20.444H137.777L132.089 34.82C131.753 35.668 131.345 36.388 130.865 36.98C130.385 37.572 129.825 38.02 129.185 38.324C128.561 38.644 127.841 38.804 127.025 38.804ZM150.417 33.788C149.281 33.788 148.225 33.58 147.249 33.164C146.289 32.748 145.457 32.172 144.753 31.436C144.065 30.684 143.561 29.812 143.241 28.82L145.953 27.644C146.385 28.668 147.009 29.476 147.825 30.068C148.641 30.644 149.561 30.932 150.585 30.932C151.161 30.932 151.657 30.844 152.073 30.668C152.505 30.476 152.833 30.22 153.057 29.9C153.297 29.58 153.417 29.196 153.417 28.748C153.417 28.22 153.257 27.788 152.937 27.452C152.633 27.1 152.169 26.828 151.545 26.636L148.113 25.532C146.721 25.1 145.673 24.452 144.969 23.588C144.265 22.724 143.913 21.708 143.913 20.54C143.913 19.516 144.161 18.612 144.657 17.828C145.169 17.044 145.873 16.436 146.769 16.004C147.681 15.556 148.721 15.332 149.889 15.332C150.961 15.332 151.945 15.524 152.841 15.908C153.737 16.276 154.505 16.796 155.145 17.468C155.801 18.124 156.289 18.9 156.609 19.796L153.921 20.996C153.569 20.1 153.041 19.412 152.337 18.932C151.633 18.436 150.817 18.188 149.889 18.188C149.345 18.188 148.865 18.284 148.449 18.476C148.033 18.652 147.705 18.908 147.465 19.244C147.241 19.564 147.129 19.948 147.129 20.396C147.129 20.892 147.289 21.332 147.609 21.716C147.929 22.084 148.417 22.372 149.073 22.58L152.361 23.612C153.785 24.076 154.849 24.716 155.553 25.532C156.273 26.348 156.633 27.356 156.633 28.556C156.633 29.58 156.369 30.484 155.841 31.268C155.313 32.052 154.585 32.668 153.657 33.116C152.729 33.564 151.649 33.788 150.417 33.788ZM165.5 33.788C164.156 33.788 162.98 33.484 161.972 32.876C160.964 32.268 160.18 31.444 159.62 30.404C159.06 29.364 158.78 28.212 158.78 26.948C158.78 25.636 159.06 24.476 159.62 23.468C160.196 22.444 160.972 21.636 161.948 21.044C162.94 20.452 164.044 20.156 165.26 20.156C166.284 20.156 167.18 20.324 167.948 20.66C168.732 20.996 169.396 21.46 169.94 22.052C170.484 22.644 170.9 23.324 171.188 24.092C171.476 24.844 171.62 25.66 171.62 26.54C171.62 26.764 171.604 26.996 171.572 27.236C171.556 27.476 171.516 27.684 171.452 27.86H161.372V25.46H169.676L168.188 26.588C168.332 25.852 168.292 25.196 168.068 24.62C167.86 24.044 167.508 23.588 167.012 23.252C166.532 22.916 165.948 22.748 165.26 22.748C164.604 22.748 164.02 22.916 163.508 23.252C162.996 23.572 162.604 24.052 162.332 24.692C162.076 25.316 161.98 26.076 162.044 26.972C161.98 27.772 162.084 28.484 162.356 29.108C162.644 29.716 163.06 30.188 163.604 30.524C164.164 30.86 164.804 31.028 165.524 31.028C166.244 31.028 166.852 30.876 167.348 30.572C167.86 30.268 168.26 29.86 168.548 29.348L171.092 30.596C170.836 31.22 170.436 31.772 169.892 32.252C169.348 32.732 168.7 33.108 167.948 33.38C167.212 33.652 166.396 33.788 165.5 33.788ZM174.003 33.5V20.444H176.955V23.348L176.715 22.916C177.019 21.94 177.491 21.26 178.131 20.876C178.787 20.492 179.571 20.3 180.483 20.3H181.251V23.084H180.123C179.227 23.084 178.507 23.364 177.963 23.924C177.419 24.468 177.147 25.236 177.147 26.228V33.5H174.003ZM186.916 33.5L181.78 20.444H185.212L188.932 30.716H187.66L191.404 20.444H194.836L189.7 33.5H186.916ZM196.573 33.5V20.444H199.717V33.5H196.573ZM196.573 18.98V15.62H199.717V18.98H196.573ZM208.908 33.788C207.612 33.788 206.444 33.492 205.404 32.9C204.38 32.292 203.572 31.476 202.98 30.452C202.388 29.412 202.092 28.244 202.092 26.948C202.092 25.652 202.388 24.492 202.98 23.468C203.572 22.444 204.38 21.636 205.404 21.044C206.444 20.452 207.612 20.156 208.908 20.156C209.836 20.156 210.7 20.324 211.5 20.66C212.3 20.98 212.988 21.428 213.564 22.004C214.156 22.564 214.58 23.236 214.836 24.02L212.076 25.22C211.836 24.564 211.428 24.036 210.852 23.636C210.292 23.236 209.644 23.036 208.908 23.036C208.22 23.036 207.604 23.204 207.06 23.54C206.532 23.876 206.116 24.34 205.812 24.932C205.508 25.524 205.356 26.204 205.356 26.972C205.356 27.74 205.508 28.42 205.812 29.012C206.116 29.604 206.532 30.068 207.06 30.404C207.604 30.74 208.22 30.908 208.908 30.908C209.66 30.908 210.316 30.708 210.876 30.308C211.436 29.908 211.836 29.372 212.076 28.7L214.836 29.948C214.58 30.684 214.164 31.348 213.588 31.94C213.012 32.516 212.324 32.972 211.524 33.308C210.724 33.628 209.852 33.788 208.908 33.788ZM223.414 33.788C222.07 33.788 220.894 33.484 219.886 32.876C218.878 32.268 218.094 31.444 217.534 30.404C216.974 29.364 216.694 28.212 216.694 26.948C216.694 25.636 216.974 24.476 217.534 23.468C218.11 22.444 218.886 21.636 219.862 21.044C220.854 20.452 221.958 20.156 223.174 20.156C224.198 20.156 225.094 20.324 225.862 20.66C226.646 20.996 227.31 21.46 227.854 22.052C228.398 22.644 228.814 23.324 229.102 24.092C229.39 24.844 229.534 25.66 229.534 26.54C229.534 26.764 229.518 26.996 229.486 27.236C229.47 27.476 229.43 27.684 229.366 27.86H219.286V25.46H227.59L226.102 26.588C226.246 25.852 226.206 25.196 225.982 24.62C225.774 24.044 225.422 23.588 224.926 23.252C224.446 22.916 223.862 22.748 223.174 22.748C222.518 22.748 221.934 22.916 221.422 23.252C220.91 23.572 220.518 24.052 220.246 24.692C219.99 25.316 219.894 26.076 219.958 26.972C219.894 27.772 219.998 28.484 220.27 29.108C220.558 29.716 220.974 30.188 221.518 30.524C222.078 30.86 222.718 31.028 223.438 31.028C224.158 31.028 224.766 30.876 225.262 30.572C225.774 30.268 226.174 29.86 226.462 29.348L229.006 30.596C228.75 31.22 228.35 31.772 227.806 32.252C227.262 32.732 226.614 33.108 225.862 33.38C225.126 33.652 224.31 33.788 223.414 33.788ZM236.885 33.788C235.493 33.788 234.277 33.46 233.237 32.804C232.213 32.132 231.509 31.228 231.125 30.092L233.477 28.964C233.813 29.7 234.277 30.276 234.869 30.692C235.477 31.108 236.149 31.316 236.885 31.316C237.461 31.316 237.917 31.188 238.253 30.932C238.589 30.676 238.757 30.34 238.757 29.924C238.757 29.668 238.685 29.46 238.541 29.3C238.413 29.124 238.229 28.98 237.989 28.868C237.765 28.74 237.517 28.636 237.245 28.556L235.109 27.956C234.005 27.636 233.165 27.148 232.589 26.492C232.029 25.836 231.749 25.06 231.749 24.164C231.749 23.364 231.949 22.668 232.349 22.076C232.765 21.468 233.333 20.996 234.053 20.66C234.789 20.324 235.629 20.156 236.573 20.156C237.805 20.156 238.893 20.452 239.837 21.044C240.781 21.636 241.453 22.468 241.853 23.54L239.453 24.668C239.229 24.076 238.853 23.604 238.325 23.252C237.797 22.9 237.205 22.724 236.549 22.724C236.021 22.724 235.605 22.844 235.301 23.084C234.997 23.324 234.845 23.636 234.845 24.02C234.845 24.26 234.909 24.468 235.037 24.644C235.165 24.82 235.341 24.964 235.565 25.076C235.805 25.188 236.077 25.292 236.381 25.388L238.469 26.012C239.541 26.332 240.365 26.812 240.941 27.452C241.533 28.092 241.829 28.876 241.829 29.804C241.829 30.588 241.621 31.284 241.205 31.892C240.789 32.484 240.213 32.948 239.477 33.284C238.741 33.62 237.877 33.788 236.885 33.788Z" fill="#2563EB"/>
<defs>
<linearGradient id="paint0_linear_26_13543" x1="1.2931" y1="2.66981" x2="47.7079" y2="46.1863" gradientUnits="userSpaceOnUse">
<stop stop-color="#6D9BFF"/>
<stop offset="1" stop-color="#0050FF"/>
</linearGradient>
</defs>
</svg>
