<svg width="33" height="32" viewBox="0 0 33 32" fill="none" xmlns="http://www.w3.org/2000/svg">
<path d="M30.6112 16.3333C30.6112 15.2933 30.5179 14.2933 30.3446 13.3333H16.5312V19.0067H24.4246C24.0846 20.84 23.0513 22.3933 21.4979 23.4333V27.1133H26.2379C29.0113 24.56 30.6112 20.8 30.6112 16.3333Z" fill="#4285F4"/>
<path d="M16.5312 30.6667C20.4912 30.6667 23.8112 29.3533 26.2379 27.1133L21.4979 23.4333C20.1846 24.3133 18.5046 24.8333 16.5312 24.8333C12.7112 24.8333 9.47789 22.2533 8.32456 18.7867H3.42456V22.5867C5.83789 27.38 10.7979 30.6667 16.5312 30.6667Z" fill="#34A853"/>
<path d="M8.32463 18.7867C8.03129 17.9067 7.86463 16.9667 7.86463 16C7.86463 15.0333 8.03129 14.0933 8.32463 13.2133V9.41333H3.42463C2.39796 11.4571 1.86372 13.7128 1.86463 16C1.86463 18.3667 2.43129 20.6067 3.42463 22.5867L8.32463 18.7867Z" fill="#FBBC05"/>
<path d="M16.5312 7.16668C18.6846 7.16668 20.6179 7.90668 22.1379 9.36001L26.3446 5.15334C23.8046 2.78668 20.4846 1.33334 16.5312 1.33334C10.7979 1.33334 5.83789 4.62001 3.42456 9.41334L8.32456 13.2133C9.47789 9.74668 12.7112 7.16668 16.5312 7.16668Z" fill="#EA4335"/>
</svg>
