<svg width="164" height="252" viewBox="0 0 164 252" fill="none" xmlns="http://www.w3.org/2000/svg">
<path d="M39.9224 -57V42.4752C39.9224 49.9882 33.8319 56.0787 26.3189 56.0787H-69.7554C-77.2684 56.0787 -83.3589 62.1691 -83.3589 69.6821V165.756C-83.3589 173.269 -89.4494 179.36 -96.9623 179.36H-193.037C-200.55 179.36 -206.64 185.45 -206.64 192.963V289.038C-206.64 296.551 -212.731 302.641 -220.244 302.641H-316.318C-323.831 302.641 -329.921 308.732 -329.921 316.245V412.319C-329.921 419.832 -336.012 425.922 -343.525 425.922H-443M163.204 -57V42.4752C163.204 49.9882 157.113 56.0787 149.6 56.0787H53.5258C46.0128 56.0787 39.9224 62.1691 39.9224 69.6821V165.756C39.9224 173.269 33.8319 179.36 26.3189 179.36H-69.7554C-77.2684 179.36 -83.3589 185.45 -83.3589 192.963V289.038C-83.3589 296.551 -77.2684 302.641 -69.7554 302.641H26.3189C33.8319 302.641 39.9224 296.551 39.9224 289.038V191.263L40.0414 190.459C40.9542 184.298 46.1842 179.697 52.4117 179.578L63.7284 179.36H149.6C157.113 179.36 163.204 185.45 163.204 192.963V289.038C163.204 296.551 157.113 302.641 149.6 302.641H52.6756L49.4463 302.856C44.0869 303.214 39.9224 307.665 39.9224 313.036V323.471M39.9224 312.844V412.319C39.9224 419.832 33.8319 425.922 26.3189 425.922H-69.7554C-77.2684 425.922 -83.3589 432.013 -83.3589 439.526V535.6C-83.3589 543.113 -89.4494 549.204 -96.9623 549.204H-193.037C-200.55 549.204 -206.64 555.294 -206.64 562.807V658.881C-206.64 666.394 -212.731 672.485 -220.244 672.485H-316.318C-323.831 672.485 -329.921 678.575 -329.921 686.088V782.163C-329.921 789.676 -336.012 795.766 -343.525 795.766H-443" stroke="url(#paint0_linear_26_13552)" stroke-opacity="0.3" stroke-width="1.27532"/>
<defs>
<linearGradient id="paint0_linear_26_13552" x1="163.204" y1="-57" x2="-429.397" y2="676.311" gradientUnits="userSpaceOnUse">
<stop stop-color="white"/>
<stop offset="0.9375" stop-color="white"/>
</linearGradient>
</defs>
</svg>
