<svg width="218" height="12" viewBox="0 0 218 12" fill="none" xmlns="http://www.w3.org/2000/svg">
<path d="M196.33 3.69106C197.46 3.98692 198.596 4.15643 199.883 3.94214C201.223 3.71824 202.437 3.88456 203.559 4.36274C204.704 4.8521 206.05 4.99283 207.493 4.77854L207.457 4.79773C208.235 4.88089 208.728 5.21992 209.377 5.41663C209.627 5.4918 209.714 5.71249 209.9 5.85802C210.074 5.99556 210.321 6.00357 210.763 5.86923C211.349 5.69011 211.43 5.69811 211.634 6.04994C211.8 6.33301 212.019 6.54091 212.518 6.64486C212.984 6.74241 213.483 6.79678 213.945 6.89593C215.268 7.1758 216.581 7.46686 217.895 7.75792C217.952 7.77072 218.015 7.8427 217.997 7.87469C217.952 7.95305 217.892 8.0394 217.786 8.09218C217.669 8.15135 217.501 8.20253 217.348 8.21212C215.767 8.30168 214.189 8.39762 212.602 8.45519C212.118 8.47278 211.61 8.39762 211.126 8.33525C209.41 8.11615 207.685 7.93065 205.93 7.8299C205.704 7.81711 205.458 7.88267 205.23 7.92425C205.194 7.93065 205.163 8.0202 205.197 8.04099C205.296 8.10336 205.416 8.16893 205.554 8.19772C206.732 8.4456 207.98 8.54955 209.206 8.69828C210.51 8.8582 211.842 8.98295 213.008 9.36517C213.059 9.38116 213.083 9.44353 213.077 9.48191C213.071 9.5155 213.02 9.55547 212.969 9.57946C212.909 9.60665 212.824 9.63224 212.746 9.63703C211.147 9.717 209.566 9.7026 208.067 9.33638C207.838 9.2804 207.631 9.19085 207.394 9.15886C205.527 8.90298 203.655 8.6535 201.782 8.41521C201.665 8.40082 201.479 8.476 201.367 8.53197C201.22 8.60714 201.265 8.85341 201.404 8.89979C201.542 8.94616 201.668 9.01333 201.818 9.03732C203.021 9.22923 204.202 9.45152 205.461 9.53948C208.403 9.74578 211.108 10.3679 213.837 10.9452C214.141 11.0092 214.402 11.1323 214.673 11.2363C214.724 11.2571 214.745 11.3194 214.736 11.3594C214.727 11.3946 214.673 11.4474 214.616 11.457C214.381 11.497 214.141 11.5497 213.9 11.5497C213.212 11.5497 212.569 11.6201 211.98 11.8184C211.457 11.9943 210.871 12.0391 210.282 11.9671C209.302 11.8472 208.334 11.7065 207.363 11.5673C206.961 11.5098 206.576 11.401 206.17 11.3722C203.002 11.1467 199.913 10.7101 196.784 10.3791C192.005 9.87212 187.194 9.48192 182.373 9.1093C178.715 8.82783 175.039 8.6407 171.376 8.39602C170.877 8.36244 170.372 8.34805 169.87 8.32726C165.599 8.15295 161.331 7.97543 157.061 7.80751C154.13 7.69077 151.2 7.5868 148.27 7.47646C148.185 7.47326 148.101 7.47487 148.017 7.46847C144.351 7.1982 140.651 7.19021 136.966 7.05267C135.292 6.9903 133.612 6.94712 131.932 6.93433C127.817 6.90075 123.703 6.89434 119.588 6.86716C118.161 6.85756 116.736 6.82397 115.308 6.79838C114.972 6.79198 114.629 6.74722 114.305 6.7712C112.038 6.93753 109.775 6.73922 107.515 6.7696C105.249 6.80159 102.986 6.87675 100.72 6.90393C98.0329 6.93592 95.346 6.93113 92.6621 6.95032C91.5711 6.95831 90.4771 6.96471 89.3922 7.00469C86.2064 7.12303 83.0205 7.16301 79.8257 7.1774C76.1319 7.19339 72.4382 7.21578 68.7535 7.4013C65.745 7.55322 62.7215 7.6172 59.713 7.76593C57.0411 7.89867 54.3663 8.01222 51.7034 8.21052C49.1277 8.40083 46.534 8.52076 43.9462 8.67909C41.8634 8.80703 39.7836 8.94776 37.7038 9.0805C34.4519 9.2884 31.1999 9.49311 27.951 9.70421C24.9515 9.89932 21.952 10.1008 18.9526 10.2959C14.8591 10.5614 10.8859 11.1339 6.88557 11.6409C6.55797 11.6825 6.23639 11.7336 5.9148 11.7832C4.68255 11.9719 3.4502 12.0455 2.19991 11.8152C1.88734 11.7576 1.53576 11.7656 1.20816 11.7257C0.387664 11.6265 -0.228407 11.1131 0.135256 10.6861C0.483893 10.2783 0.405779 9.93449 0.165341 9.53948C0.0150662 9.2916 -0.0511719 8.99895 0.0450037 8.74786C0.324514 8.00102 -0.267449 7.22857 0.315615 6.49612C0.41179 6.37458 0.549966 6.24344 0.537944 6.1187C0.468818 5.38785 1.18711 5.12397 2.46744 4.99763C5.85162 4.66499 9.20872 4.25879 12.5809 3.89097C16.7795 3.43199 21.0234 3.14732 25.2882 2.92662C26.6256 2.85785 27.957 2.7699 29.2945 2.70753C31.0467 2.62596 32.8078 2.58439 34.551 2.43566C35.3775 2.3653 36.2131 2.31731 37.0456 2.26613C38.0465 2.20376 39.0442 2.1206 40.048 2.09981C41.8183 2.06302 43.5584 1.9239 45.2836 1.73199C46.7833 1.56727 48.2681 1.5113 49.7829 1.65683C50.8708 1.76238 51.9288 1.75278 52.9567 1.45212C53.6299 1.25382 54.4172 1.27141 55.1776 1.30979C56.0853 1.4889 56.0853 1.4905 56.8246 1.32738C56.1304 1.32738 55.6406 1.32738 55.1477 1.32738C55.5624 1.16266 56.0283 1.05871 56.5452 1.0683C57.2124 1.0827 57.8886 1.08909 58.5378 1.16265C59.3673 1.25701 60.1878 1.27461 61.0323 1.27461C62.1083 1.27301 63.2083 1.20904 64.2422 1.47452C64.4255 1.52249 64.8193 1.49529 64.9485 1.42173C65.5917 1.04751 66.4362 1.04751 67.2687 1.00753C67.6023 0.991538 67.9419 0.994729 68.2695 0.959545C68.507 0.933957 68.7775 0.889183 68.9458 0.804423C69.4086 0.566136 69.9708 0.510168 70.5688 0.510168C72.4052 0.513367 74.2505 0.345447 76.0748 0.610921C76.6489 0.694082 77.25 0.662099 77.791 0.51337C78.5664 0.300671 79.3989 0.275078 80.2375 0.268681C81.2413 0.262284 82.2481 0.263882 83.2519 0.26708C83.5975 0.26868 83.8981 0.316663 84.0483 0.51337C84.2076 0.726069 84.5653 0.702075 84.8989 0.687682C84.9801 0.684483 85.0823 0.678091 85.1394 0.652503C85.8908 0.291075 86.7503 0.257495 87.7151 0.337457C88.5296 0.404625 89.3712 0.375832 90.2488 0.390225C90.3119 0.428607 90.4321 0.487769 90.5192 0.559735C90.7236 0.732453 91.0301 0.793228 91.3727 0.743651C91.6913 0.697273 91.9948 0.614126 92.2954 0.537362C93.4224 0.252697 94.5797 0.286264 95.7338 0.458982C95.9231 0.487768 96.0884 0.630102 96.1875 0.74045C96.3047 0.869988 96.4431 0.957947 96.7106 0.980336C97.3026 1.02671 97.8917 1.02192 98.4146 0.846005C99.9565 0.32945 101.624 0.443 103.295 0.550149C103.377 0.554947 103.482 0.567749 103.527 0.598134C104.284 1.11469 105.36 0.921178 106.331 0.954762C106.782 0.970755 107.125 0.865195 107.419 0.68448C107.711 0.506964 108.125 0.4494 108.549 0.433408C109.051 0.414217 109.559 0.436609 110.052 0.396628C110.455 0.363044 110.839 0.263888 111.233 0.193522L111.206 0.20951C111.948 0.166331 112.694 0.123143 113.406 0.0815629C113.989 0.212701 113.956 0.519761 114.178 0.746853C114.308 0.87959 114.834 0.959548 115.053 0.861994C115.305 0.751646 115.54 0.628503 115.759 0.500564C116.234 0.222295 116.823 0.0687666 117.524 0.0591712C118.272 0.0495757 119.017 0.0575899 119.738 0.0575899C119.835 0.198323 119.366 0.311859 119.681 0.387024C120.135 0.495772 120.628 0.522957 120.799 0.844404C120.866 0.967546 121.527 0.989935 121.698 0.903576C121.815 0.844404 121.906 0.769238 122.008 0.70207C122.666 0.254282 123.535 0.0319911 124.592 0.00640321C124.677 0.00480397 124.761 0 124.842 0C127.18 0.0111947 129.515 0.0207917 131.854 0.0415819C132.022 0.0431811 132.025 0.153527 131.881 0.239886C131.83 0.270272 131.803 0.311869 131.712 0.396628C132.079 0.404625 132.401 0.423815 132.719 0.415819C134.135 0.383834 135.547 0.27187 136.966 0.419001C137.279 0.450985 137.642 0.425414 137.952 0.375837C138.938 0.219112 139.941 0.263882 140.942 0.26708C141.366 0.26868 141.775 0.30706 142.108 0.465385C142.58 0.687679 143.157 0.745253 143.749 0.726062C144.928 0.68768 146.073 0.751657 147.218 0.91318C147.56 0.961158 148.074 1.01392 148.213 0.682879C148.234 0.630104 148.465 0.570936 148.606 0.566138C149.105 0.546947 149.607 0.54215 150.109 0.546948C150.71 0.551745 151.296 0.630111 151.711 0.869998C152.348 1.23782 153.132 1.30979 154.001 1.25382C154.401 1.22823 154.791 1.24423 155.197 1.13708C156.55 0.782046 156.562 0.799631 157.379 1.10988C157.581 1.18665 157.812 1.23942 158.028 1.30499C158.161 1.35616 158.281 1.41854 158.425 1.45372C158.639 1.5049 158.759 1.46331 158.708 1.36576C158.696 1.34017 158.566 1.32257 158.491 1.31937C158.329 1.31458 158.164 1.32098 158.001 1.32258C158.425 1.17545 158.87 1.05231 159.387 1.04431C159.805 1.03791 160.225 1.02992 160.637 1.05231C161.208 1.0827 161.806 0.977141 162.35 1.14346C162.188 1.37375 162.218 1.50489 162.431 1.50489C162.765 1.50329 163.111 1.53209 163.429 1.49691C164.532 1.37537 165.578 1.43933 166.612 1.67282C167.066 1.77517 167.565 1.82314 167.992 1.88711C168.148 1.99586 168.094 2.05982 167.862 2.07901C167.141 2.13819 166.42 2.19098 165.713 2.33491C166.125 2.33491 166.54 2.33971 166.952 2.33491C168.551 2.31412 170.107 2.41006 171.637 2.67873C172.259 2.78748 172.945 2.81787 173.606 2.84346C174.204 2.86745 174.793 2.79388 175.172 2.51881C175.953 1.95267 177.017 1.81515 178.264 1.87433C178.745 1.89672 179.058 1.94308 178.962 2.24374C179.382 2.37968 179.803 2.51722 180.224 2.65316C180.065 2.65316 179.896 2.63235 179.752 2.65794C179.62 2.68033 179.428 2.7459 179.419 2.80027C179.406 2.86264 179.545 2.9474 179.656 2.99858C179.773 3.05135 179.929 3.09454 180.08 3.10734C180.218 3.12013 180.425 3.11053 180.497 3.06415C180.558 3.02577 180.494 2.91383 180.44 2.84506C180.38 2.76829 180.269 2.70273 180.179 2.63237C180.335 2.60198 180.519 2.58917 180.645 2.538C182.169 1.91589 183.77 2.06624 185.387 2.39728C185.49 2.41807 185.604 2.53801 185.58 2.59719C185.538 2.70114 185.517 2.80348 185.7 2.82267C186.106 2.86744 186.523 2.88344 186.938 2.90423C187.777 2.94741 188.318 3.15051 188.504 3.61909C188.6 3.86217 189.057 3.94534 189.481 3.96933C190.641 4.0365 191.804 4.09406 192.967 4.13724C193.196 4.14523 193.556 4.11006 193.649 4.0269C194.193 3.54553 195.002 3.57592 195.855 3.65108C196.021 3.66548 196.18 3.68946 196.345 3.71025L196.33 3.69106ZM131.875 4.78654L131.845 4.77055C132.001 4.76895 132.154 4.77215 132.31 4.76735C132.542 4.76095 132.608 4.70977 132.476 4.6394C132.443 4.62181 132.32 4.63302 132.256 4.65061C132.124 4.68899 132.001 4.74016 131.875 4.78654ZM77.4784 3.93095C77.8721 4.10687 78.305 4.2076 78.8339 4.13724C79.3088 4.07327 79.7866 4.01571 80.2585 3.94854C80.3216 3.93894 80.3666 3.88936 80.4177 3.85897C80.3125 3.8094 80.2134 3.72465 80.0992 3.71666C79.1766 3.65269 78.338 3.87817 77.4514 3.95014C77.223 3.92455 76.9915 3.88296 76.7631 3.88136C76.5497 3.87976 76.4835 3.95973 76.5977 4.04129C76.6308 4.06528 76.7481 4.07327 76.8142 4.06208C77.0396 4.0253 77.259 3.97573 77.4784 3.93095ZM29.06 6.41138C28.9848 6.41297 28.9067 6.40817 28.8406 6.42096C28.7895 6.43056 28.7504 6.46094 28.7084 6.48333C28.8166 6.45295 28.9247 6.42417 29.0359 6.39379C29.4567 6.40498 29.8775 6.39858 30.2923 6.42896C31.2179 6.49453 32.1016 6.50252 33.0032 6.30422C33.8688 6.11391 34.8186 6.11871 35.7382 6.21147C36.8142 6.32182 37.8931 6.06914 38.96 6.23386C40.1983 6.1427 41.3704 5.86444 42.6357 5.85324C44.0122 5.46942 45.524 5.42623 47.0238 5.33987C47.5197 5.31108 48.0096 5.25511 48.4995 5.20234C48.5416 5.19754 48.5986 5.09359 48.5776 5.0856C48.4574 5.03762 48.3041 4.96246 48.1809 4.97046C46.3476 5.0808 44.5203 5.22313 42.6869 5.31908C39.2637 5.49979 35.8735 5.80526 32.4502 5.98437C31.6177 6.02755 30.7881 6.11071 29.9676 6.20026C29.6521 6.23545 29.3635 6.33941 29.06 6.41138ZM176.154 6.95192C176.512 6.82718 176.903 6.76 177.33 6.78559C177.907 6.81918 178.478 6.88474 179.055 6.89593C179.458 6.90393 179.866 6.84477 180.269 6.80798C180.329 6.80319 180.395 6.7536 180.419 6.71842C180.443 6.68163 180.452 6.62086 180.413 6.59687C179.944 6.3186 179.34 6.18428 178.649 6.20827C177.991 6.23066 177.336 6.30582 176.677 6.32501C176.142 6.341 175.719 6.19228 175.445 5.95079C175.319 5.84045 175.271 5.7045 175.187 5.58136C175.773 5.57016 176.365 5.5286 176.945 5.55418C178.616 5.62935 180.305 5.67411 181.949 5.83723C184.837 6.1219 187.78 6.21787 190.644 6.5745C190.803 6.59369 190.978 6.58729 191.146 6.58729C191.23 6.58729 191.335 6.58728 191.389 6.56169C191.501 6.51212 191.663 6.44175 191.654 6.38418C191.645 6.31861 191.494 6.21146 191.38 6.20186C189.974 6.07712 188.567 5.96519 187.191 5.75569C186.806 5.69652 186.358 5.72689 185.946 5.74448C185.264 5.77487 184.624 5.72049 183.966 5.61814C182.283 5.35586 180.476 5.41504 178.814 5.08079C178.739 5.0664 178.649 5.07599 178.565 5.07759C176.96 5.10958 175.394 4.92887 173.825 4.80413C172.569 4.70498 171.334 4.6506 170.068 4.74176C169.578 4.77694 169.043 4.79294 168.578 4.72577C167.427 4.55785 166.273 4.51787 165.091 4.52746C164.343 4.53386 163.592 4.45869 162.84 4.41711C162.173 4.38032 161.506 4.30357 160.842 4.31157C159.243 4.33076 157.659 4.27158 156.075 4.18362C155.074 4.12765 154.07 4.09086 153.063 4.05888C152.826 4.05088 152.579 4.09567 152.342 4.12765C152.291 4.13405 152.234 4.19002 152.228 4.2236C152.222 4.26358 152.255 4.33875 152.294 4.34355C152.781 4.39792 153.268 4.46829 153.761 4.48748C158.861 4.67779 163.955 4.92728 169.068 5.03283C169.485 5.04083 169.9 5.08561 170.315 5.11439C171.313 5.18316 172.307 5.25992 173.308 5.3159C173.982 5.35428 174.64 5.40384 175.226 5.60215C174.063 5.63733 172.873 5.60535 171.742 5.7285C170.564 5.85803 169.458 5.9204 168.313 5.68211C167.763 5.56857 167.165 5.55738 166.594 5.65494C166.477 5.67413 166.396 5.77647 166.327 5.84844C166.3 5.87563 166.342 5.93639 166.39 5.96518C166.495 6.03075 166.612 6.09951 166.747 6.14269C167.418 6.36019 168.136 6.41936 168.911 6.3426C169.921 6.24345 170.958 6.24985 171.821 6.55211C172.647 6.84157 173.507 6.90554 174.432 6.91194C175.015 6.91514 175.598 6.92792 176.185 6.93591C176.254 6.94551 176.323 6.95351 176.392 6.96311C176.314 6.95991 176.233 6.95672 176.154 6.95192ZM97.0923 3.98212L97.0622 3.96453C97.5491 3.90855 98.0358 3.8062 98.5257 3.8062C99.4424 3.8062 100.365 3.85098 101.279 3.90856C101.793 3.94054 102.271 3.92776 102.767 3.85579C103.082 3.80941 103.434 3.77101 103.749 3.7998C104.429 3.85897 105.081 3.79982 105.748 3.75504C106.238 3.72145 106.746 3.75662 107.248 3.76302C107.747 3.76942 108.249 3.8046 108.741 3.77901C109.27 3.75182 109.727 3.82379 110.193 3.93733C110.512 4.0157 110.839 4.00451 111.137 3.88617C111.564 3.71984 112.048 3.66708 112.564 3.69266C113.565 3.74224 114.566 3.795 115.567 3.84138C115.982 3.86057 116.429 3.92935 116.808 3.87498C117.815 3.72945 118.789 3.75503 119.79 3.86858C120.108 3.90536 120.466 3.88777 120.79 3.85579C122.783 3.66068 124.797 3.68626 126.807 3.68946C129.825 3.69426 132.842 3.71185 135.86 3.72464C136.076 3.76462 136.29 3.8078 136.506 3.84138C136.575 3.85258 136.662 3.84619 136.729 3.8318C136.786 3.819 136.822 3.78381 136.867 3.75822C136.747 3.73263 136.626 3.68466 136.509 3.68626C136.281 3.68946 136.055 3.72144 135.83 3.74223C135.689 3.69425 135.559 3.62708 135.406 3.5999C133.952 3.33922 132.464 3.24006 130.943 3.3792C130.273 3.43997 129.627 3.44957 128.947 3.3808C128.379 3.32323 127.775 3.33444 127.192 3.35523C125.762 3.4064 124.349 3.37441 122.927 3.24967C121.767 3.14892 120.586 3.11694 119.435 3.31524C118.696 3.44318 117.962 3.42239 117.205 3.32643C115.883 3.16011 114.545 3.15371 113.208 3.30724C112.802 3.35362 112.36 3.408 111.966 3.37121C111.131 3.29285 110.289 3.34723 109.466 3.29445C106.782 3.12493 104.107 3.29445 101.435 3.35523C99.761 3.39361 98.087 3.47196 96.4069 3.48315C96.0793 3.48475 95.7518 3.52793 95.4272 3.56151C95.3791 3.56631 95.319 3.62548 95.322 3.65747C95.328 3.69105 95.3941 3.74544 95.4482 3.75023C96.0072 3.80301 96.6384 3.70865 97.0923 3.98212ZM62.2075 4.40112C64.6119 4.6554 66.7127 4.76095 68.4138 4.70178C68.8316 4.68738 69.2705 4.68579 69.6552 4.61223C71.0106 4.34995 72.4141 4.24441 73.8417 4.19643C73.9168 4.19323 73.9951 4.16443 74.0582 4.13884C74.1243 4.11165 74.2264 4.06688 74.2174 4.04129C74.1843 3.96452 74.1332 3.84299 74.037 3.82699C73.7245 3.77422 73.3849 3.72783 73.0633 3.73903C71.3983 3.7966 69.7393 3.95333 68.0592 3.84138C67.8969 3.83019 67.7256 3.85258 67.5603 3.86537C65.8231 4.00931 64.089 4.15324 62.3548 4.30196C62.2977 4.30836 62.2556 4.36753 62.2075 4.40112ZM189.694 7.21898C189.319 7.24137 189.153 7.24457 188.991 7.26376C188.789 7.28615 188.702 7.35492 188.76 7.44608C188.784 7.48446 188.838 7.53244 188.898 7.54523C189.201 7.6108 189.505 7.68596 189.823 7.72114C192.916 8.05539 196.036 8.31767 199.083 8.76866C199.158 8.77985 199.255 8.77184 199.33 8.75905C199.405 8.74626 199.492 8.72228 199.528 8.68869C199.558 8.66151 199.555 8.60072 199.516 8.57513C199.065 8.29207 198.44 8.14014 197.791 8.09856C195.883 7.97542 194.058 7.66678 192.192 7.45408C191.299 7.35173 190.395 7.28295 189.694 7.21898ZM88.782 3.94214C89.885 4.08127 91.2916 3.91975 92.7011 3.88136C92.8634 3.87657 93.0468 3.86377 93.176 3.81899C93.2872 3.77901 93.4104 3.68146 93.3894 3.62229C93.3684 3.55992 93.1731 3.46077 93.0739 3.46717C91.1804 3.58231 89.2508 3.4048 87.3724 3.67347C86.9096 3.73904 86.3837 3.69585 85.8908 3.68146C84.9771 3.65427 84.0634 3.58712 83.1647 3.73425C83.0986 3.74544 83.0054 3.78062 82.9964 3.81101C82.9634 3.90856 83.0806 3.95493 83.2789 3.98372C83.8439 4.06528 84.4031 4.14365 84.9952 4.05409C86.1343 3.87818 87.3033 3.91015 88.782 3.94214ZM163.276 6.08192C163.453 6.08192 163.787 6.09633 164.115 6.07554C164.25 6.06754 164.439 5.99397 164.472 5.9316C164.505 5.86763 164.412 5.73809 164.304 5.70931C163.55 5.503 162.753 5.38147 161.9 5.49501C161.232 5.58457 160.58 5.56856 159.928 5.46142C159.772 5.43583 159.597 5.43104 159.432 5.43424C159.27 5.43744 159.107 5.45662 158.951 5.48221C158.885 5.4934 158.819 5.53339 158.789 5.56857C158.759 5.60375 158.744 5.66613 158.783 5.69012C159.408 6.07553 160.084 6.3618 161.151 6.16829C161.776 6.05474 162.444 5.99716 163.276 6.08192ZM51.1804 4.92407C51.3246 4.95126 51.4689 5.00403 51.6132 5.00403C52.1962 5.00084 52.7944 5.02324 53.3564 4.95607C54.6728 4.79934 55.9952 4.78173 57.3296 4.79773C57.4137 4.79932 57.4979 4.79774 57.5791 4.79134C57.6602 4.78495 57.7594 4.78015 57.8165 4.75456C57.9337 4.69699 58.051 4.633 58.1291 4.55784C58.2373 4.45069 57.9908 4.29718 57.7293 4.31477C55.8329 4.43631 53.9364 4.55625 52.043 4.69219C51.7214 4.71458 51.3667 4.74656 51.1804 4.92407ZM185.036 6.58409C184.771 6.63846 184.387 6.71202 184.011 6.79838C183.797 6.84636 183.785 7.06386 183.972 7.14222C184.588 7.4045 185.252 7.54684 186.049 7.4093C186.235 7.37732 186.4 7.16942 186.307 7.07506C186.067 6.82558 185.706 6.65765 185.036 6.58409ZM153.574 5.19435C153.343 5.20235 153.165 5.18954 153.012 5.21833C152.877 5.24392 152.769 5.31269 152.652 5.36226C152.76 5.41664 152.859 5.51259 152.979 5.52059C154.226 5.60215 155.477 5.66931 156.724 5.73648C156.796 5.73968 156.907 5.71089 156.943 5.67891C157.019 5.60854 157.073 5.52859 157.1 5.44863C157.109 5.41824 157.028 5.34947 156.977 5.34788C155.822 5.2919 154.665 5.24233 153.574 5.19435ZM106.268 5.15437C107.762 4.80414 107.762 4.80413 108.071 4.56584C107.067 4.46669 106.088 4.4491 104.964 4.60422C105.469 4.81532 105.88 4.98965 106.268 5.15437ZM142.394 3.73903C141.655 3.67506 140.918 3.60311 140.173 3.55353C139.932 3.53754 139.677 3.57272 139.43 3.59511C139.358 3.60151 139.274 3.64307 139.244 3.67986C139.163 3.78381 139.238 3.85577 139.44 3.87816C140.434 3.99011 141.432 3.92454 142.394 3.73903ZM193.719 6.81119C194.515 6.97911 195.309 7.04307 196.123 7.04947C196.228 7.05107 196.411 6.95352 196.42 6.89435C196.432 6.82718 196.324 6.72482 196.21 6.68644C195.543 6.46255 194.834 6.38898 194.097 6.58729C193.965 6.62247 193.884 6.71043 193.719 6.81119ZM128.716 0.324651C128.575 0.289467 128.433 0.222299 128.295 0.223898C127.228 0.230295 126.158 0.24789 125.091 0.26708C125.019 0.26868 124.953 0.307062 124.884 0.327852C125.022 0.364635 125.163 0.433408 125.302 0.433408C126.369 0.427011 127.439 0.407815 128.505 0.388624C128.578 0.387025 128.647 0.34704 128.716 0.324651ZM202.561 7.39809C202.326 7.41409 202.167 7.41729 202.02 7.44128C201.966 7.44927 201.915 7.50205 201.903 7.53883C201.891 7.57561 201.908 7.63 201.957 7.65399C202.386 7.89228 202.912 7.98343 203.513 7.89067C203.622 7.87468 203.694 7.76912 203.748 7.69875C203.766 7.67636 203.694 7.60919 203.64 7.598C203.258 7.52124 202.876 7.45567 202.561 7.39809ZM117.926 4.58824C117.19 4.52267 116.607 4.39633 115.958 4.41552C115.891 4.41712 115.768 4.47309 115.777 4.49228C115.807 4.56905 115.837 4.67779 115.94 4.70978C116.559 4.90649 117.184 4.91448 117.926 4.58824ZM148.474 4.10526C149.009 4.30197 149.541 4.31476 150.094 4.19961C150.142 4.19002 150.193 4.13085 150.181 4.10206C150.166 4.06688 150.094 4.02051 150.031 4.01251C149.496 3.93415 148.967 3.89096 148.474 4.10526ZM199.315 7.12943C199.27 7.03348 199.141 6.9807 198.972 7.02388C198.861 7.05266 198.735 7.13103 198.729 7.19021C198.717 7.28296 198.888 7.34052 199.053 7.29894C199.168 7.27176 199.231 7.18701 199.315 7.12943ZM145.931 4.08767C146.061 4.10526 146.208 4.15165 146.316 4.13246C146.475 4.10527 146.478 4.02051 146.346 3.95494C146.301 3.93255 146.184 3.91655 146.157 3.92935C146.067 3.97413 146.004 4.0333 145.931 4.08767ZM99.6378 4.59144C99.4305 4.57704 99.3253 4.61383 99.3734 4.69539C99.3884 4.71938 99.4966 4.73376 99.5658 4.74016C99.7701 4.76095 99.8752 4.71938 99.8271 4.63302C99.8181 4.61223 99.707 4.60423 99.6378 4.59144ZM127.228 4.58503C127.162 4.60742 127.096 4.62982 127.03 4.65221C127.084 4.68099 127.129 4.72098 127.195 4.73537C127.264 4.75137 127.357 4.75295 127.43 4.74176C127.502 4.73216 127.559 4.69859 127.625 4.6746C127.493 4.64581 127.36 4.61542 127.228 4.58503ZM59.8361 4.4523C59.8451 4.49069 59.8242 4.54505 59.8633 4.56264C59.9955 4.62181 60.1397 4.60263 60.2359 4.51468C60.2629 4.48909 60.2509 4.42351 60.2089 4.40592C60.0736 4.34515 59.9413 4.36754 59.8361 4.4523ZM101.862 4.61223L101.778 4.6714L101.943 4.6746L101.862 4.61223ZM197.151 4.33874C197.097 4.35634 197.043 4.37394 196.989 4.38993C197.094 4.4619 197.202 4.4619 197.31 4.39153C197.256 4.37394 197.205 4.35634 197.151 4.33874ZM57.3777 1.94308L57.5641 1.99747L57.594 1.91751L57.3777 1.94308ZM121.461 4.58023C121.407 4.60422 121.352 4.62662 121.298 4.65061C121.343 4.6778 121.38 4.72417 121.434 4.73057C121.626 4.75456 121.71 4.70819 121.647 4.61543C121.632 4.59464 121.524 4.59143 121.461 4.58023ZM14.6006 7.31015L14.7328 7.35013L14.7629 7.29416L14.6006 7.31015Z" fill="#2563EB"/>
<path d="M111.248 0.195129C110.767 0.195129 110.286 0.195129 109.667 0.195129C110.298 0.043201 110.298 0.0431971 111.218 0.211117C111.221 0.211117 111.248 0.195129 111.248 0.195129Z" fill="#2563EB"/>
<path d="M196.357 3.70864C196.655 3.56791 196.98 3.46236 197.4 3.51034C197.458 3.51674 197.524 3.55351 197.545 3.5855C197.56 3.60789 197.503 3.66706 197.472 3.66706C197.091 3.67985 196.709 3.68466 196.327 3.69105C196.33 3.69105 196.357 3.70864 196.357 3.70864Z" fill="#2563EB"/>
<path d="M173.813 2.39886L173.66 2.3221L173.846 2.29333L173.813 2.39886Z" fill="#2563EB"/>
<path d="M207.496 4.77694L207.403 4.75456L207.46 4.79614L207.496 4.77694Z" fill="#2563EB"/>
</svg>
