<svg width="164" height="252" viewBox="0 0 164 252" fill="none" xmlns="http://www.w3.org/2000/svg">
<path d="M124.281 -57V42.4752C124.281 49.9882 130.372 56.0787 137.885 56.0787H233.959C241.472 56.0787 247.563 62.1691 247.563 69.6821V165.756C247.563 173.269 253.653 179.36 261.166 179.36H357.24C364.753 179.36 370.844 185.45 370.844 192.963V289.038C370.844 296.551 376.934 302.641 384.447 302.641H480.522C488.035 302.641 494.125 308.732 494.125 316.245V412.319C494.125 419.832 500.215 425.922 507.728 425.922H607.204M1 -57V42.4752C1 49.9882 7.09047 56.0787 14.6034 56.0787H110.678C118.191 56.0787 124.281 62.1691 124.281 69.6821V165.756C124.281 173.269 130.372 179.36 137.885 179.36H233.959C241.472 179.36 247.563 185.45 247.563 192.963V289.038C247.563 296.551 241.472 302.641 233.959 302.641H137.885C130.372 302.641 124.281 296.551 124.281 289.038V191.263L124.162 190.459C123.249 184.298 118.019 179.697 111.792 179.578L100.475 179.36H14.6034C7.09047 179.36 1 185.45 1 192.963V289.038C1 296.551 7.09047 302.641 14.6034 302.641H111.528L114.757 302.856C120.117 303.214 124.281 307.665 124.281 313.036V323.471M124.281 312.844V412.319C124.281 419.832 130.372 425.922 137.885 425.922H233.959C241.472 425.922 247.563 432.013 247.563 439.526V535.6C247.563 543.113 253.653 549.204 261.166 549.204H357.24C364.753 549.204 370.844 555.294 370.844 562.807V658.881C370.844 666.394 376.934 672.485 384.447 672.485H480.522C488.035 672.485 494.125 678.575 494.125 686.088V782.163C494.125 789.676 500.215 795.766 507.728 795.766H607.204" stroke="url(#paint0_linear_26_13551)" stroke-opacity="0.3" stroke-width="1.27532"/>
<defs>
<linearGradient id="paint0_linear_26_13551" x1="1" y1="-57" x2="593.6" y2="676.311" gradientUnits="userSpaceOnUse">
<stop stop-color="white"/>
<stop offset="0.9375" stop-color="white"/>
</linearGradient>
</defs>
</svg>
