<svg width="49" height="52" viewBox="0 0 49 52" fill="none" xmlns="http://www.w3.org/2000/svg">
<path fill-rule="evenodd" clip-rule="evenodd" d="M47.825 43.6338C46.9732 43.0517 35.5971 44.8664 30.9342 46.3141C30.0404 46.5914 28.4169 46.9906 27.3606 47.1966C25.2897 47.624 24.4269 48.1877 24.7958 48.8937C25.1343 49.5313 25.5795 49.4831 31.0258 48.1975C34.0535 47.4658 40.5653 46.2428 44.2683 45.7078C46.2181 45.4081 47.9366 45.0647 48.0782 44.9146C48.4241 44.5846 48.3116 43.9427 47.8282 43.6363L47.825 43.6338Z" fill="#2563EB"/>
<path fill-rule="evenodd" clip-rule="evenodd" d="M42.4211 21.7676C42.2734 21.6487 41.9471 21.5491 41.7458 21.5709C41.1446 21.6359 39.4325 22.6757 38.4077 23.5983C37.8952 24.0582 36.6691 25.0025 35.6852 25.6941C34.7014 26.3856 33.4931 27.2821 32.9759 27.6994C32.4588 28.1168 31.3962 28.9287 30.5836 29.5329C27.9168 31.5337 27.5863 31.7932 27.1843 32.2411C26.4815 33.0371 26.9006 34.2081 27.8591 34.1046C28.0604 34.0828 29.1474 33.3113 30.2679 32.4243C32.5042 30.6077 33.1044 30.1354 35.1103 28.6822C35.8646 28.1503 37.4464 26.9667 38.6548 26.0702C39.8607 25.151 41.2609 24.1448 41.7854 23.7955C42.7692 23.104 43.0398 22.263 42.4211 21.7676Z" fill="#2563EB"/>
<path fill-rule="evenodd" clip-rule="evenodd" d="M24.3538 15.6591C23.2165 15.3546 21.8556 17.1225 18.9879 22.6792C18.0008 24.5874 16.4262 27.325 15.4793 28.7556C14.2586 30.6001 13.7942 31.5051 13.8778 31.8547C14.0402 32.5342 14.8954 32.5107 15.4465 31.7971C16.4156 30.5449 19.0069 26.4122 19.9184 24.6269C20.4614 23.5986 21.45 21.9169 22.1287 20.8969C24.4713 17.3562 24.811 16.7572 24.7556 16.2439C24.7268 15.9774 24.5395 15.705 24.3535 15.6563L24.3538 15.6591Z" fill="#2563EB"/>
<path fill-rule="evenodd" clip-rule="evenodd" d="M23.6168 35.9141C23.083 35.5673 19.4754 38.2321 19.5523 38.9438C19.6243 39.6102 20.2034 39.9779 20.8079 39.7318C21.0897 39.6325 21.92 38.9805 22.6976 38.2653C24.0868 36.9448 24.3181 36.3777 23.614 35.9144L23.6168 35.9141Z" fill="#2563EB"/>
<path fill-rule="evenodd" clip-rule="evenodd" d="M8.04185 4.31788C7.50411 3.72194 6.63644 3.81573 6.28627 4.53058C6.11375 4.81888 5.88216 5.99419 5.75314 7.1097C5.62941 8.24759 5.43579 9.80042 5.31383 10.5566C5.11774 12.0867 5.26363 12.5873 5.92905 12.7191C7.03422 12.9381 7.46375 11.9221 7.96188 7.7718C8.11872 6.51558 8.2829 5.32742 8.33164 5.14142C8.40024 4.95328 8.24891 4.58811 8.03901 4.31819L8.04185 4.31788Z" fill="#2563EB"/>
<path fill-rule="evenodd" clip-rule="evenodd" d="M5.83696 16.2202C5.22479 15.9708 4.61448 16.3753 4.26552 17.3137C4.1028 17.6928 3.75417 20.0943 3.46531 22.6241C3.19914 25.1515 2.87962 27.8223 2.7779 28.5534C2.59714 30.013 2.70869 30.4082 3.39067 30.6931C3.76971 30.8558 3.9406 30.7915 4.2188 30.4458C4.57295 29.9801 5.01381 27.1843 5.35475 23.2518C5.46284 22.1816 5.72294 20.4208 5.96714 19.3359C6.47632 16.9601 6.469 16.4675 5.83415 16.2205L5.83696 16.2202Z" fill="#2563EB"/>
</svg>
