<svg width="41" height="40" viewBox="0 0 41 40" fill="none" xmlns="http://www.w3.org/2000/svg">
<path fill-rule="evenodd" clip-rule="evenodd" d="M20.1728 16.0002C10.9076 16.0002 3.27734 8.99999 2.28245 0H15.1552C15.95 1.99224 17.8969 3.40002 20.1728 3.40002C22.4485 3.40002 24.3956 1.99224 25.1903 0H38.063C37.0682 8.99999 29.4379 16.0002 20.1728 16.0002ZM0.173096 36.0004C6.8006 36.0004 12.1732 30.6277 12.1732 24.0003C12.1732 17.3727 6.8006 12.0001 0.173096 12.0001V20.4001C2.16133 20.4001 3.77311 22.0119 3.77311 24.0003C3.77311 25.9885 2.16133 27.6003 0.173096 27.6003V36.0004ZM40.1734 16.0005C38.1228 15.3509 35.9391 15.0004 33.6733 15.0004C21.7991 15.0004 12.1732 24.6264 12.1732 36.5006C12.1732 37.6924 12.2702 38.8617 12.4566 40.0007H25.8154C25.3385 38.9315 25.0734 37.7471 25.0734 36.5006C25.0734 31.7509 28.9237 27.9005 33.6733 27.9005C36.2693 27.9005 38.5966 29.0507 40.1734 30.8692V16.0005Z" fill="white"/>
</svg>
