<svg width="50" height="47" viewBox="0 0 50 47" fill="none" xmlns="http://www.w3.org/2000/svg">
<rect y="0.5" width="50" height="46" rx="4" fill="url(#paint0_linear_26_13544)"/>
<path d="M9.728 33.5V15.62H12.272L22.112 28.868L20.792 29.132V15.62H24.056V33.5H21.488L11.792 20.156L12.992 19.892V33.5H9.728ZM33.9011 33.788C32.7651 33.788 31.7091 33.58 30.7331 33.164C29.7731 32.748 28.9411 32.172 28.2371 31.436C27.5491 30.684 27.0451 29.812 26.7251 28.82L29.4371 27.644C29.8691 28.668 30.4931 29.476 31.3091 30.068C32.1251 30.644 33.0451 30.932 34.0691 30.932C34.6451 30.932 35.1411 30.844 35.5571 30.668C35.9891 30.476 36.3171 30.22 36.5411 29.9C36.7811 29.58 36.9011 29.196 36.9011 28.748C36.9011 28.22 36.7411 27.788 36.4211 27.452C36.1171 27.1 35.6531 26.828 35.0291 26.636L31.5971 25.532C30.2051 25.1 29.1571 24.452 28.4531 23.588C27.7491 22.724 27.3971 21.708 27.3971 20.54C27.3971 19.516 27.6451 18.612 28.1411 17.828C28.6531 17.044 29.3571 16.436 30.2531 16.004C31.1651 15.556 32.2051 15.332 33.3731 15.332C34.4451 15.332 35.4291 15.524 36.3251 15.908C37.2211 16.276 37.9891 16.796 38.6291 17.468C39.2851 18.124 39.7731 18.9 40.0931 19.796L37.4051 20.996C37.0531 20.1 36.5251 19.412 35.8211 18.932C35.1171 18.436 34.3011 18.188 33.3731 18.188C32.8291 18.188 32.3491 18.284 31.9331 18.476C31.5171 18.652 31.1891 18.908 30.9491 19.244C30.7251 19.564 30.6131 19.948 30.6131 20.396C30.6131 20.892 30.7731 21.332 31.0931 21.716C31.4131 22.084 31.9011 22.372 32.5571 22.58L35.8451 23.612C37.2691 24.076 38.3331 24.716 39.0371 25.532C39.7571 26.348 40.1171 27.356 40.1171 28.556C40.1171 29.58 39.8531 30.484 39.3251 31.268C38.7971 32.052 38.0691 32.668 37.1411 33.116C36.2131 33.564 35.1331 33.788 33.9011 33.788Z" fill="white"/>
<defs>
<linearGradient id="paint0_linear_26_13544" x1="1.2931" y1="2.66981" x2="47.7079" y2="46.1863" gradientUnits="userSpaceOnUse">
<stop stop-color="#6D9BFF"/>
<stop offset="1" stop-color="#0050FF"/>
</linearGradient>
</defs>
</svg>
