<svg width="25" height="25" viewBox="0 0 25 25" fill="none" xmlns="http://www.w3.org/2000/svg">
<path d="M12.501 2.5C18.0238 2.5 22.501 6.97715 22.501 12.5C22.501 18.0228 18.0238 22.5 12.501 22.5C10.6671 22.5 8.94851 22.0064 7.47086 21.1447L2.50516 22.5L3.85712 17.5315C2.99494 16.0536 2.50098 14.3345 2.50098 12.5C2.50098 6.97715 6.97813 2.5 12.501 2.5ZM8.89232 7.80833C8.76293 7.81742 8.63607 7.84902 8.52057 7.90811C8.43392 7.95244 8.35348 8.01651 8.22709 8.13586C8.10774 8.24855 8.03857 8.34697 7.96569 8.44186C7.59599 8.9232 7.39729 9.51405 7.40098 10.121C7.40299 10.6116 7.53043 11.0884 7.73169 11.5336C8.13982 12.4364 8.81288 13.3908 9.70194 14.2759C9.9155 14.4885 10.1247 14.7034 10.3503 14.902C11.4538 15.8736 12.7688 16.5742 14.1907 16.9482C14.1907 16.9482 14.7507 17.0342 14.7589 17.0347C14.9444 17.0447 15.1296 17.0313 15.3153 17.0218C15.6066 17.0068 15.891 16.928 16.1484 16.7909C16.3139 16.7028 16.3922 16.659 16.5311 16.5714C16.5311 16.5714 16.5737 16.5426 16.6559 16.4814C16.7909 16.3808 16.8743 16.31 16.9866 16.1934C17.0694 16.1074 17.1406 16.0058 17.1956 15.8913C17.2738 15.7281 17.3525 15.4166 17.3838 15.1579C17.4077 14.9603 17.4005 14.8523 17.3979 14.7854C17.3936 14.6778 17.3047 14.5671 17.2073 14.5201L16.6258 14.2587C16.6258 14.2587 15.7563 13.8803 15.2245 13.6377C15.1691 13.6124 15.1085 13.6007 15.0476 13.597C14.9142 13.5888 14.7647 13.6236 14.6696 13.7238C14.6646 13.7218 14.5984 13.779 13.8749 14.6555C13.835 14.7032 13.7415 14.8069 13.5798 14.7972C13.5554 14.7955 13.5311 14.792 13.5074 14.7858C13.4419 14.7685 13.3781 14.7457 13.3157 14.7193C13.192 14.6668 13.1486 14.6469 13.0641 14.6105C12.4868 14.3583 11.957 14.0209 11.4887 13.608C11.3631 13.4974 11.2463 13.3783 11.1259 13.2616C10.7057 12.8543 10.3617 12.4211 10.1058 11.9938C10.0918 11.9705 10.0703 11.9368 10.0471 11.8991C10.0052 11.831 9.95903 11.75 9.94455 11.6944C9.90738 11.5473 10.006 11.4291 10.006 11.4291C10.006 11.4291 10.2494 11.163 10.3625 11.0183C10.4713 10.879 10.5652 10.7428 10.625 10.6457C10.7428 10.4563 10.7801 10.2606 10.7182 10.1096C10.4376 9.42565 10.1482 8.74536 9.84986 8.06894C9.79098 7.93545 9.61585 7.83846 9.45659 7.82007C9.40265 7.81384 9.34875 7.80758 9.29459 7.80402C9.16053 7.79748 9.0262 7.79892 8.89232 7.80833Z" fill="white"/>
</svg>
